<svg width="20" height="20" viewBox="0 0 20 20" fill="none" xmlns="http://www.w3.org/2000/svg">
<path d="M10 0.5C5 0.5 1 4.5 1 9.5V16.5C1 17.2956 1.31607 18.0587 1.87868 18.6213C2.44129 19.1839 3.20435 19.5 4 19.5H7V11.5H3V9.5C3 7.64348 3.7375 5.86301 5.05025 4.55025C6.36301 3.2375 8.14348 2.5 10 2.5C11.8565 2.5 13.637 3.2375 14.9497 4.55025C16.2625 5.86301 17 7.64348 17 9.5V11.5H13V19.5H16C16.7956 19.5 17.5587 19.1839 18.1213 18.6213C18.6839 18.0587 19 17.2956 19 16.5V9.5C19 4.5 14.97 0.5 10 0.5Z" fill="#333333"/>
</svg>
