<svg width="28" height="25" viewBox="0 0 28 25" fill="none" xmlns="http://www.w3.org/2000/svg">
<path d="M0.200012 5.1998C0.200012 4.03285 0.663582 2.9137 1.48874 2.08853C2.3139 1.26337 3.43306 0.799805 4.60001 0.799805H21.4C22.567 0.799805 23.6861 1.26337 24.5113 2.08853C25.3364 2.9137 25.8 4.03285 25.8 5.1998V11.9998H24.2V5.1998C24.2 4.4572 23.905 3.74501 23.3799 3.21991C22.8548 2.6948 22.1426 2.3998 21.4 2.3998H4.60001C3.85741 2.3998 3.14522 2.6948 2.62011 3.21991C2.09501 3.74501 1.80001 4.4572 1.80001 5.1998V15.5998C1.80001 17.1454 3.05441 18.3998 4.60001 18.3998H11.4V19.9998H4.60001C3.43306 19.9998 2.3139 19.5362 1.48874 18.7111C0.663582 17.8859 0.200012 16.7668 0.200012 15.5998V5.1998ZM15.4 13.5998C14.7635 13.5998 14.153 13.8527 13.703 14.3027C13.2529 14.7528 13 15.3633 13 15.9998V22.3998C13 23.0363 13.2529 23.6468 13.703 24.0969C14.153 24.5469 14.7635 24.7998 15.4 24.7998H25C25.6365 24.7998 26.247 24.5469 26.6971 24.0969C27.1472 23.6468 27.4 23.0363 27.4 22.3998V15.9998C27.4 15.3633 27.1472 14.7528 26.6971 14.3027C26.247 13.8527 25.6365 13.5998 25 13.5998H15.4Z" fill="white"/>
</svg>
