<svg width="22" height="19" viewBox="0 0 22 19" fill="none" xmlns="http://www.w3.org/2000/svg">
<path d="M7.41 19H14.58C15.47 19 15.92 17.92 15.29 17.29L11.7 13.7C11.6075 13.6073 11.4976 13.5337 11.3766 13.4836C11.2557 13.4334 11.126 13.4076 10.995 13.4076C10.864 13.4076 10.7343 13.4334 10.6134 13.4836C10.4924 13.5337 10.3825 13.6073 10.29 13.7L6.7 17.29C6.08 17.92 6.52 19 7.41 19ZM20 0H2C0.9 0 0 0.9 0 2V14C0 15.1 0.9 16 2 16H5C5.55 16 6 15.55 6 15C6 14.45 5.55 14 5 14H3C2.45 14 2 13.55 2 13V3C2 2.45 2.45 2 3 2H19C19.55 2 20 2.45 20 3V13C20 13.55 19.55 14 19 14H17C16.45 14 16 14.45 16 15C16 15.55 16.45 16 17 16H20C21.1 16 22 15.1 22 14V2C22 0.9 21.1 0 20 0Z" fill="white"/>
</svg>
