<svg width="21" height="18" viewBox="0 0 21 18" fill="none" xmlns="http://www.w3.org/2000/svg">
<path d="M12.3277 0.0888722C12.4304 0.146928 12.5159 0.231209 12.5754 0.333108C12.6349 0.435007 12.6663 0.550873 12.6664 0.668872V16.6689C12.6664 16.7868 12.6351 16.9027 12.5758 17.0046C12.5164 17.1065 12.431 17.1909 12.3284 17.249C12.2258 17.3072 12.1096 17.3371 11.9916 17.3356C11.8737 17.3342 11.7582 17.3015 11.657 17.2409L5.14905 13.3355H2.66638C2.13595 13.3355 1.62724 13.1248 1.25217 12.7498C0.877096 12.3747 0.666382 11.866 0.666382 11.3355L0.666382 5.99821C0.666735 5.468 0.877605 4.95964 1.25264 4.58485C1.62767 4.21007 2.13618 3.99954 2.66638 3.99954H5.14905L11.6557 0.0968721C11.757 0.036146 11.8726 0.00340598 11.9906 0.00200037C12.1087 0.000594764 12.225 0.0305741 12.3277 0.0888722ZM19.1384 4.19421L18.6664 3.72354L17.7237 4.66621L18.1917 5.13554L18.1957 5.13821L18.2224 5.16754C18.249 5.19776 18.289 5.24754 18.3424 5.31687C18.445 5.45421 18.5904 5.67021 18.737 5.96354C19.0304 6.54887 19.333 7.44621 19.333 8.66354C19.333 9.88087 19.029 10.7782 18.737 11.3635C18.6259 11.5916 18.4933 11.8086 18.341 12.0115C18.2947 12.0727 18.2458 12.1319 18.1944 12.1889L18.1917 12.1929L17.7237 12.6595L18.6664 13.6035L19.1384 13.1329L19.1397 13.1302L19.1424 13.1275L19.149 13.1209L19.1677 13.1022L19.225 13.0382C19.273 12.9849 19.3339 12.9093 19.4077 12.8115C19.5544 12.6169 19.7424 12.3315 19.929 11.9595C20.3024 11.2129 20.6664 10.1115 20.6664 8.66354C20.6664 7.21554 20.3037 6.11554 19.929 5.36754C19.7827 5.06791 19.6086 4.78266 19.409 4.51554C19.3332 4.41536 19.2527 4.31881 19.1677 4.22621L19.149 4.20621L19.1424 4.19954L19.1397 4.19687C19.1397 4.19554 19.137 4.19421 18.6664 4.66621L19.1384 4.19421Z" fill="white"/>
</svg>
