<svg viewBox="0 0 24 24" fill="none" xmlns="http://www.w3.org/2000/svg">
<rect width="24" height="24" rx="4.08511" fill="black" fill-opacity="0.24"/>
<path fill-rule="evenodd" clip-rule="evenodd" d="M15.2865 19.8511V19.8465H15.4225V19.8511H19.7617C19.7992 19.8511 19.8297 19.8206 19.8297 19.783V15.4174V15.2813V12.5909C19.8424 12.4189 19.8496 12.2454 19.8511 12.0705H19.8297V11.9343H19.8511C19.8496 11.7594 19.8424 11.5858 19.8297 11.4138V8.72347V8.58733V4.22173C19.8297 4.18413 19.7992 4.15366 19.7617 4.15366H15.4225V4.14899H15.2865V4.15366H12.0573L11.9213 4.15362L8.73564 4.15366L8.59964 4.15362L4.21699 4.15366C4.17943 4.15366 4.14899 4.18413 4.14899 4.22173V8.58733L4.14917 8.72348L4.14899 11.9343L4.14917 12.0705L4.14899 15.2813L4.14917 15.4174L4.14899 19.783C4.14899 19.8206 4.17943 19.8511 4.21699 19.8511H8.59964H8.73564H11.9213H12.0573H15.2865ZM19.6937 10.4283V8.72347H19.1365C19.3841 9.26169 19.5726 9.83273 19.6937 10.4283ZM19.0723 8.58733H19.6937V4.38608L17.5921 6.48989C18.1932 7.09971 18.6953 7.80756 19.0723 8.58733ZM17.4958 6.3938C16.8916 5.80161 16.1921 5.30647 15.4225 4.93357V4.2898H19.5975L17.4958 6.3938ZM17.3996 6.49008L15.4225 8.46932V5.08518C16.155 5.44791 16.8216 5.92382 17.3996 6.49008ZM15.4969 8.58733L17.4959 6.58616C18.0711 7.16977 18.5539 7.84473 18.9209 8.58733H15.4969ZM15.2865 8.79801V11.0445C15.129 10.5039 14.8415 10.0187 14.4602 9.62513L15.2865 8.79801ZM15.1686 8.72347H12.9679C13.4978 8.8782 13.9745 9.15819 14.3636 9.52929L15.1686 8.72347ZM14.2674 9.62559C13.6904 9.07643 12.9136 8.73567 12.0573 8.72379V11.838L14.2674 9.62559ZM12.1535 11.9343L14.364 9.72141C14.9204 10.2964 15.2683 11.0748 15.2858 11.9343H12.1535ZM11.8252 12.0705H8.73633C8.75359 12.919 9.09286 13.6884 9.63679 14.2612L11.8252 12.0705ZM9.73251 14.3579L11.9213 12.1667V15.2801C11.0713 15.2572 10.3021 14.9101 9.73251 14.3579ZM9.54059 14.3575C9.16989 13.9679 8.8902 13.4908 8.73564 12.9602V15.1633L9.54059 14.3575ZM8.8101 15.2813L9.63633 14.4542C10.0295 14.8359 10.5142 15.1236 11.0542 15.2813H8.8101ZM8.48176 15.4174H5.10123C5.46357 16.1508 5.93897 16.8181 6.50463 17.3967L8.48176 15.4174ZM6.60061 17.4931L8.59964 15.492V18.9196C7.85783 18.5523 7.1836 18.0689 6.60061 17.4931ZM6.40846 17.493C5.81689 16.8881 5.32228 16.1879 4.94978 15.4174H4.28499V19.6187L6.40846 17.493ZM4.38116 19.715L6.50444 17.5894C7.11361 18.1912 7.8207 18.6938 8.59964 19.0712V19.715H4.38116ZM15.2865 4.86929V4.2898H13.4727C14.1076 4.40965 14.7155 4.60614 15.2865 4.86929ZM12.0573 4.28994C13.2115 4.29674 14.3056 4.5576 15.2865 5.01949V8.4886C14.4391 7.69674 13.3052 7.20839 12.0573 7.19659V4.28994ZM18.9865 8.72347H15.5211C16.3075 9.56677 16.7943 10.6937 16.8115 11.9343H19.6937V11.419C19.6221 10.4611 19.3758 9.55197 18.9865 8.72347ZM16.6754 11.9343C16.6583 10.7301 16.1857 9.63611 15.4225 8.81724V11.9343H16.6754ZM12.0573 7.33274C13.2689 7.34453 14.3699 7.81866 15.1928 8.58733H12.0573V7.33274ZM11.9213 4.29032V7.19719C10.6906 7.21977 9.57311 7.70594 8.73564 8.4886V5.01949C9.70423 4.5634 10.7831 4.30332 11.9213 4.29032ZM11.9213 7.33337C10.7269 7.35592 9.64237 7.82785 8.8293 8.58733H11.9213V7.33337ZM8.59964 11.9343V8.81724C7.83638 9.63611 7.36384 10.7301 7.34665 11.9343H8.59964ZM7.21064 11.9343C7.22784 10.6937 7.71459 9.56677 8.50102 8.72347H5.03561C4.57711 9.69926 4.3169 10.7869 4.30699 11.9343H7.21064ZM4.30699 12.0705H7.21064C7.22784 13.311 7.71459 14.438 8.50102 15.2813H5.03561C4.57711 14.3055 4.3169 13.2179 4.30699 12.0705ZM8.73564 18.9853V15.5162C9.57311 16.2988 10.6906 16.785 11.9213 16.8076V19.7145C10.7831 19.7015 9.70423 19.4414 8.73564 18.9853ZM8.8293 15.4174C9.64238 16.1769 10.7269 16.6489 11.9213 16.6714V15.4174H8.8293ZM12.0573 19.7148V16.8082C13.3052 16.7964 14.4391 16.308 15.2865 15.5162V18.9853C14.3056 19.4472 13.2115 19.708 12.0573 19.7148ZM12.0573 16.672C13.2689 16.6602 14.3699 16.1861 15.1928 15.4174H12.0573V16.672ZM18.9865 15.2813H15.5211C16.3075 14.438 16.7943 13.311 16.8115 12.0705H19.6937V12.5858C19.6221 13.5437 19.3758 14.4528 18.9865 15.2813ZM15.4225 15.1875C16.1857 14.3687 16.6583 13.2747 16.6754 12.0705H15.4225V15.1875ZM7.34665 12.0705C7.36384 13.2747 7.83638 14.3687 8.59964 15.1875V12.0705H7.34665ZM10.5494 4.2898H8.73564V4.86929C9.30655 4.60614 9.91445 4.40965 10.5494 4.2898ZM8.59964 4.93357V4.2898H4.38116L6.50444 6.41535C7.11361 5.81361 7.8207 5.31098 8.59964 4.93357ZM6.40846 6.51181L4.28499 4.38608V8.58733H4.94978C5.32228 7.81689 5.81689 7.11665 6.40846 6.51181ZM8.59964 5.08518C7.85783 5.4525 7.1836 5.93588 6.60061 6.51162L8.59964 8.51279V5.08518ZM11.0542 8.72347H8.8101L9.63633 9.55059C10.0295 9.1689 10.5142 8.88114 11.0542 8.72347ZM9.54059 9.64729L8.73564 8.84148V11.0445C8.8902 10.514 9.16989 10.0369 9.54059 9.64729ZM5.10123 8.58733H8.48176L6.50463 6.60809C5.93897 7.18666 5.46357 7.85401 5.10123 8.58733ZM8.73633 11.9343C8.75359 11.0858 9.09286 10.3164 9.63679 9.74359L11.8252 11.9343H8.73633ZM11.9213 11.838L9.73251 9.64687C10.3021 9.09463 11.0713 8.74756 11.9213 8.72468V11.838ZM15.2858 12.0705H12.1535L14.364 14.2834C14.9204 13.7083 15.2683 12.93 15.2858 12.0705ZM14.2674 14.3792L12.0573 12.1667V15.281C12.9136 15.2691 13.6904 14.9283 14.2674 14.3792ZM12.9679 15.2813C13.4978 15.1266 13.9745 14.8466 14.3636 14.4755L15.1686 15.2813H12.9679ZM15.2865 12.9602C15.129 13.5009 14.8415 13.9861 14.4602 14.3796L15.2865 15.2068V12.9602ZM15.4225 18.9196V15.5354L17.3996 17.5147C16.8216 18.081 16.155 18.5569 15.4225 18.9196ZM15.4969 15.4174L17.4959 17.4186C18.0711 16.835 18.5539 16.16 18.9209 15.4174H15.4969ZM15.4225 19.0712C16.1921 18.6983 16.8916 18.2032 17.4958 17.611L19.5975 19.715H15.4225V19.0712ZM17.5921 17.5149L19.6937 19.6187V15.4174H19.0723C18.6953 16.1972 18.1932 16.9051 17.5921 17.5149ZM4.88556 8.72347H4.28499V10.6596C4.40196 9.98036 4.60614 9.331 4.88556 8.72347ZM4.28499 13.3452V15.2813H4.88556C4.60614 14.6738 4.40196 14.0244 4.28499 13.3452ZM8.73564 19.1355V19.715H10.5494C9.91445 19.5951 9.30655 19.3986 8.73564 19.1355ZM13.4727 19.715H15.2865V19.1355C14.7155 19.3986 14.1076 19.5951 13.4727 19.715ZM19.1365 15.2813H19.6937V13.5765C19.5726 14.172 19.3841 14.7431 19.1365 15.2813Z" fill="black" fill-opacity="0.32"/>
</svg>
