<svg width="20" height="20" viewBox="0 0 20 20" fill="none" xmlns="http://www.w3.org/2000/svg">
<g clip-path="url(#clip0_1_2010)">
<path d="M10 0.25C11.0883 0.25 12.1456 0.429319 13.1729 0.789062L13.6113 0.954102C14.7761 1.42429 15.8109 2.08728 16.7168 2.94238L16.8926 3.1084L17.0645 2.9375L18.7559 1.25781L18.7568 1.25879L18.7637 1.25195C18.8608 1.14812 18.9553 1.09645 19.0469 1.07812C19.1385 1.05991 19.2514 1.06914 19.3926 1.12695V1.12793C19.5263 1.18627 19.6111 1.25887 19.6641 1.33887C19.7169 1.41884 19.75 1.52436 19.75 1.66699V7.5C19.75 7.65688 19.6959 7.78942 19.5762 7.90918C19.4565 8.0289 19.3238 8.08293 19.167 8.08301H13.333C13.1918 8.08296 13.0874 8.05007 13.0078 7.99609C12.9476 7.95524 12.8912 7.89556 12.8418 7.80957L12.7949 7.71484L12.7939 7.71289L12.7598 7.61816C12.7335 7.52807 12.7315 7.45108 12.7451 7.38379C12.7588 7.31624 12.7913 7.2449 12.8516 7.16992L12.9209 7.09375L14.9043 5.11035L14.7139 4.93359C13.3831 3.70186 11.8079 3.08301 10 3.08301C9.18086 3.08301 8.39338 3.22348 7.63867 3.50293L7.31641 3.63086C6.46862 3.99425 5.73192 4.48683 5.10938 5.10938C4.56463 5.65412 4.1197 6.28644 3.77344 7.00391L3.63086 7.31641C3.2658 8.16821 3.08301 9.06377 3.08301 10C3.08301 10.8191 3.22348 11.6066 3.50293 12.3613L3.63086 12.6836C3.99425 13.5314 4.48683 14.2681 5.10938 14.8906C5.73192 15.5132 6.46862 16.0057 7.31641 16.3691C8.16821 16.7342 9.06377 16.917 10 16.917C10.9369 16.917 11.8305 16.7374 12.6787 16.3789L13.04 16.2139C13.8757 15.8039 14.5977 15.2449 15.2051 14.5391L15.459 14.2275L15.4648 14.2188C15.4727 14.2076 15.4956 14.1825 15.5752 14.1699C15.6063 14.1712 15.6322 14.1756 15.6543 14.1836L15.7178 14.2227L17.4922 16.0098L17.5029 16.0205C17.5281 16.0429 17.5412 16.0668 17.543 16.1104C17.5448 16.1571 17.5328 16.1963 17.5 16.2373C16.578 17.3529 15.4628 18.2161 14.1523 18.8291C12.8402 19.4429 11.4566 19.75 10 19.75C8.67946 19.75 7.41989 19.4916 6.21875 18.9756C5.01347 18.4578 3.97676 17.7639 3.10645 16.8936C2.23613 16.0232 1.54218 14.9865 1.02441 13.7812C0.508443 12.5801 0.25 11.3205 0.25 10C0.25 8.67946 0.508443 7.41989 1.02441 6.21875C1.54218 5.01347 2.23613 3.97676 3.10645 3.10645C3.97676 2.23613 5.01347 1.54218 6.21875 1.02441C7.41989 0.508443 8.67946 0.25 10 0.25Z" fill="#787878" stroke="white" stroke-width="0.5"/>
</g>
<defs>
<clipPath id="clip0_1_2010">
<rect width="20" height="20" fill="white"/>
</clipPath>
</defs>
</svg>
