<svg viewBox="0 0 83 60" fill="none" xmlns="http://www.w3.org/2000/svg">
<path d="M1.00161 12.7897C1.62999 6.14768 7.08097 1.08395 13.7459 0.784137C21.9599 0.41464 33.0108 0.00223837 41.4573 9.12627e-06C49.8596 -0.00220847 60.8198 0.400118 69.0623 0.767169C75.9076 1.07199 81.4406 6.39295 81.9084 13.229C82.2759 18.5995 82.61 24.8485 82.613 29.8492C82.6161 34.941 82.2775 41.3136 81.9055 46.7684C81.4393 53.6057 75.9061 58.9281 69.0597 59.2329C60.8174 59.6 49.8587 60.0022 41.4573 60C33.012 59.9978 21.9631 59.5855 13.7495 59.216C7.08291 58.9161 1.63145 53.8494 1.00512 47.2055C0.482286 41.6595 -0.00429404 35.0831 2.8586e-05 29.8492C0.00427631 24.7061 0.484712 18.2533 1.00161 12.7897Z" fill="url(#paint0_linear_1_1679)"/>
<path d="M25.3266 41.0462L56.4033 35.0056L57.1512 38.8531L26.0745 44.8938L25.3266 41.0462Z" fill="white"/>
<path d="M35.661 19.8995C35.661 22.3973 33.6362 24.4221 31.1384 24.4221C28.6406 24.4221 26.6158 22.3973 26.6158 19.8995C26.6158 17.4017 28.6406 15.3769 31.1384 15.3769C33.6362 15.3769 35.661 17.4017 35.661 19.8995Z" fill="white"/>
<path d="M54.9575 19.8995C54.9575 22.3973 52.9326 24.4221 50.4349 24.4221C47.9371 24.4221 45.9123 22.3973 45.9123 19.8995C45.9123 17.4017 47.9371 15.3769 50.4349 15.3769C52.9326 15.3769 54.9575 17.4017 54.9575 19.8995Z" fill="white"/>
<defs>
<linearGradient id="paint0_linear_1_1679" x1="63.7688" y1="-2.17074e-06" x2="-5.27639" y2="76.1306" gradientUnits="userSpaceOnUse">
<stop stop-color="#B40301"/>
<stop offset="1" stop-color="#900303"/>
</linearGradient>
</defs>
</svg>
