<svg viewBox="0 0 30 24" fill="none" xmlns="http://www.w3.org/2000/svg">
<path d="M7 0H23V24H7V0Z" fill="white"/>
<path d="M4 0H8V24H4C1.792 24 0 22.208 0 20V4C0 1.792 1.792 0 4 0Z" fill="#C53A28"/>
<path d="M26 24H22L22 0H26C28.208 0 30 1.792 30 4L30 20C30 22.208 28.208 24 26 24Z" fill="#C53A28"/>
<path opacity="0.15" d="M26 0H4C1.791 0 0 1.791 0 4V20C0 22.209 1.791 24 4 24H26C28.209 24 30 22.209 30 20V4C30 1.791 28.209 0 26 0ZM29 20C29 21.654 27.654 23 26 23H4C2.346 23 1 21.654 1 20V4C1 2.346 2.346 1 4 1H26C27.654 1 29 2.346 29 4V20Z" fill="black"/>
<path d="M15.275 18.167L15.137 15.526C15.13 15.366 15.254 15.23 15.414 15.222C15.435 15.222 15.456 15.222 15.477 15.226L18.106 15.688L17.751 14.709C17.721 14.629 17.746 14.539 17.812 14.486L20.692 12.154L20.043 11.851C19.952 11.808 19.908 11.705 19.939 11.609L20.508 9.858L18.849 10.21C18.756 10.229 18.663 10.181 18.626 10.094L18.305 9.338L17.01 10.727C16.934 10.807 16.809 10.81 16.729 10.734C16.68 10.687 16.658 10.619 16.671 10.552L17.295 7.332L16.294 7.91C16.199 7.966 16.077 7.934 16.022 7.839C16.02 7.835 16.018 7.831 16.016 7.827L15 5.832L13.984 7.827C13.935 7.925 13.815 7.965 13.717 7.916C13.713 7.914 13.709 7.912 13.705 7.91L12.704 7.332L13.328 10.552C13.349 10.66 13.278 10.764 13.17 10.785C13.103 10.798 13.035 10.776 12.988 10.727L11.693 9.338L11.372 10.094C11.335 10.181 11.241 10.23 11.149 10.21L9.49003 9.858L10.059 11.609C10.09 11.704 10.046 11.808 9.95503 11.851L9.30603 12.154L12.186 14.486C12.252 14.54 12.277 14.63 12.247 14.709L11.892 15.688L14.521 15.226C14.679 15.199 14.83 15.305 14.857 15.463C14.861 15.484 14.862 15.505 14.861 15.526L14.723 18.167H15.275Z" fill="#C53A28"/>
<path opacity="0.2" d="M26 1H4C2.343 1 1 2.343 1 4V5C1 3.343 2.343 2 4 2H26C27.657 2 29 3.343 29 5V4C29 2.343 27.657 1 26 1Z" fill="white"/>
</svg>
