<svg width="24" height="25" viewBox="0 0 24 25" fill="none" xmlns="http://www.w3.org/2000/svg">
<rect x="7" y="6.5" width="10" height="12" fill="#D9D9D9"/>
<path d="M12.0004 2.90039C14.5465 2.90039 16.9883 3.91182 18.7886 5.71217C20.589 7.51252 21.6004 9.95431 21.6004 12.5004C21.6004 15.0465 20.589 17.4883 18.7886 19.2886C16.9883 21.089 14.5465 22.1004 12.0004 22.1004C9.45431 22.1004 7.01252 21.089 5.21217 19.2886C3.41182 17.4883 2.40039 15.0465 2.40039 12.5004C2.40039 9.95431 3.41182 7.51252 5.21217 5.71217C7.01252 3.91182 9.45431 2.90039 12.0004 2.90039ZM16.03 9.67559C15.9306 9.57668 15.7998 9.51569 15.6602 9.5032C15.5205 9.4907 15.3809 9.52749 15.2656 9.60719L15.1816 9.67559L10.8004 14.058L8.82519 12.0816L8.74119 12.012C8.62561 11.9324 8.48578 11.8958 8.34602 11.9086C8.20625 11.9214 8.0754 11.9828 7.97623 12.0821C7.87706 12.1814 7.81584 12.3124 7.80323 12.4522C7.79061 12.5919 7.8274 12.7317 7.90719 12.8472L7.97559 12.9312L10.3756 15.3312L10.4596 15.3996C10.5598 15.4687 10.6786 15.5058 10.8004 15.5058C10.9221 15.5058 11.041 15.4687 11.1412 15.3996L11.2252 15.33L16.03 10.5252L16.0996 10.4412C16.1795 10.3256 16.2162 10.1857 16.2035 10.0458C16.1908 9.90588 16.1294 9.77487 16.03 9.67559Z" fill="#34C759"/>
</svg>
