<svg width="34" height="34" viewBox="0 0 34 34" fill="none" xmlns="http://www.w3.org/2000/svg">
<rect x="0.5" y="0.5" width="33" height="33" rx="16.5" fill="white" fill-opacity="0.1"/>
<rect x="0.5" y="0.5" width="33" height="33" rx="16.5" stroke="#5D768A"/>
<path d="M22.432 10.302C22.7855 10.0136 23.3075 10.034 23.6371 10.3635C23.9662 10.6931 23.9869 11.2153 23.6986 11.5686L23.6371 11.637L18.2738 17.0002L23.6371 22.3635L23.6986 22.4319C23.9867 22.7854 23.9665 23.3075 23.6371 23.637C23.3076 23.9664 22.7855 23.9866 22.432 23.6985L22.3636 23.637L17.0003 18.2737L11.6371 23.637L11.5687 23.6985C11.2153 23.9868 10.6932 23.9661 10.3636 23.637C10.0341 23.3074 10.0137 22.7854 10.3021 22.4319L10.3636 22.3635L15.7269 17.0002L10.3636 11.637L10.3021 11.5686C10.0137 11.2151 10.0341 10.6931 10.3636 10.3635C10.6932 10.034 11.2152 10.0136 11.5687 10.302L11.6371 10.3635L17.0003 15.7268L22.3636 10.3635L22.432 10.302Z" fill="white"/>
</svg>
