<svg width="14" height="14" viewBox="0 0 14 14" fill="none" xmlns="http://www.w3.org/2000/svg">
<path d="M12.432 0.302016C12.7855 0.0136 13.3075 0.0339982 13.6371 0.363539C13.9662 0.693115 13.9869 1.21526 13.6986 1.56862L13.6371 1.63698L8.27379 7.00026L13.6371 12.3635L13.6986 12.4319C13.9867 12.7854 13.9665 13.3076 13.6371 13.637C13.3076 13.9664 12.7855 13.9866 12.432 13.6985L12.3636 13.637L7.00035 8.27369L1.63707 13.637L1.56871 13.6985C1.21535 13.9868 0.693207 13.9662 0.363631 13.637C0.0340897 13.3074 0.0136914 12.7854 0.302107 12.4319L0.363631 12.3635L5.72691 7.00026L0.363631 1.63698L0.302107 1.56862C0.0136546 1.21512 0.0340763 0.693093 0.363631 0.363539C0.693185 0.0339848 1.21521 0.013563 1.56871 0.302016L1.63707 0.363539L7.00035 5.72682L12.3636 0.363539L12.432 0.302016Z" fill="#C8C8C8"/>
</svg>
