<svg width="24" height="25" viewBox="0 0 24 25" fill="none" xmlns="http://www.w3.org/2000/svg">
<path fill-rule="evenodd" clip-rule="evenodd" d="M10.1932 10.0557L12.0002 7.16474L13.8072 10.0557C13.869 10.1547 13.9505 10.2399 14.0467 10.306C14.1428 10.372 14.2516 10.4176 14.3661 10.4398C14.4806 10.4621 14.5985 10.4605 14.7124 10.4352C14.8263 10.4099 14.9338 10.3614 15.0282 10.2927L18.9082 7.47074L17.4182 15.2967C17.4072 15.3538 17.3768 15.4052 17.3321 15.4422C17.2874 15.4793 17.2312 15.4996 17.1732 15.4997H6.82816C6.76993 15.4998 6.7135 15.4796 6.66858 15.4426C6.62367 15.4055 6.59311 15.3539 6.58216 15.2967L5.09216 7.46974L8.97216 10.2917C9.06648 10.3602 9.17387 10.4086 9.28767 10.4338C9.40147 10.459 9.51924 10.4605 9.63366 10.4383C9.74808 10.4161 9.8567 10.3706 9.95278 10.3046C10.0489 10.2386 10.1303 10.1536 10.1922 10.0547M12.7202 5.48674C12.6438 5.3644 12.5375 5.26351 12.4114 5.19356C12.2852 5.12361 12.1434 5.08691 11.9992 5.08691C11.8549 5.08691 11.7131 5.12361 11.5869 5.19356C11.4608 5.26351 11.3545 5.3644 11.2782 5.48674L9.29016 8.66974L4.64616 5.29174C4.02316 4.83874 3.16616 5.38174 3.31116 6.13774L5.10816 15.5777C5.18452 15.9779 5.3981 16.3389 5.71208 16.5985C6.02606 16.8581 6.42077 17 6.82816 16.9997H17.1732C17.5805 16.9997 17.9751 16.8575 18.2889 16.5978C18.6027 16.338 18.816 15.9769 18.8922 15.5767L20.6892 6.13774C20.8342 5.38174 19.9782 4.83774 19.3552 5.29174L14.7102 8.66974L12.7202 5.48674ZM6.00016 18.4997C5.80125 18.4997 5.61048 18.5788 5.46983 18.7194C5.32918 18.8601 5.25016 19.0508 5.25016 19.2497C5.25016 19.4486 5.32918 19.6394 5.46983 19.7801C5.61048 19.9207 5.80125 19.9997 6.00016 19.9997H18.0002C18.1991 19.9997 18.3898 19.9207 18.5305 19.7801C18.6711 19.6394 18.7502 19.4486 18.7502 19.2497C18.7502 19.0508 18.6711 18.8601 18.5305 18.7194C18.3898 18.5788 18.1991 18.4997 18.0002 18.4997H6.00016Z" fill="white"/>
</svg>
