<svg width="12" height="12" viewBox="0 0 12 12" fill="none" xmlns="http://www.w3.org/2000/svg">
<rect x="2.51929" y="2.49713" width="6.85254" height="7.17501" fill="white"/>
<path d="M6.50914 0.0842377C7.11412 0.291003 9.59532 1.17933 10.2079 1.4397C10.6751 1.63881 10.9661 1.83026 10.9661 2.44289V6.97641C10.9661 9.1972 9.84038 10.1544 6.40192 11.8928C6.23345 11.9771 6.08795 12 6.00371 12C5.91181 12 5.76632 11.9847 5.6055 11.8928C2.22834 10.032 1.03369 9.1972 1.03369 6.97641V2.44289C1.03369 1.83026 1.32469 1.63115 1.79183 1.4397C2.40447 1.18698 4.87799 0.268029 5.49063 0.0842377C5.65144 0.0382905 5.82758 0 6.00371 0C6.17218 0 6.34832 0.0306323 6.50914 0.0842377ZM7.73441 3.42311L5.29152 7.38229L4.18878 5.91196C4.0203 5.68222 3.86714 5.61329 3.67569 5.61329C3.36171 5.61329 3.12432 5.87366 3.12432 6.17998C3.12432 6.3408 3.17793 6.49396 3.28513 6.62414L4.70952 8.40847C4.89331 8.65353 5.08476 8.74543 5.32215 8.74543C5.55955 8.74543 5.75866 8.63816 5.8965 8.40847L8.63039 4.08936C8.71463 3.95152 8.80653 3.7907 8.80653 3.62988C8.80653 3.30824 8.52318 3.10914 8.22452 3.10914C8.04073 3.10914 7.85694 3.21635 7.73441 3.42311Z" fill="#34C759"/>
</svg>
