<svg width="24" height="25" viewBox="0 0 24 25" fill="none" xmlns="http://www.w3.org/2000/svg">
<path d="M4.38379 18.3714C4.38379 19.1976 4.71202 19.9901 5.29626 20.5743C5.88051 21.1586 6.67292 21.4868 7.49917 21.4868C8.32542 21.4868 9.11783 21.1586 9.70208 20.5743C10.2863 19.9901 10.6146 19.1976 10.6146 18.3714C10.6146 17.5451 10.2863 16.7527 9.70208 16.1685C9.11783 15.5842 8.32542 15.256 7.49917 15.256C6.67292 15.256 5.88051 15.5842 5.29626 16.1685C4.71202 16.7527 4.38379 17.5451 4.38379 18.3714ZM13.3866 18.3714C13.3866 18.7805 13.4671 19.1856 13.6237 19.5636C13.7803 19.9416 14.0097 20.285 14.299 20.5743C14.5883 20.8636 14.9318 21.0931 15.3097 21.2496C15.6877 21.4062 16.0928 21.4868 16.5019 21.4868C16.9111 21.4868 17.3162 21.4062 17.6941 21.2496C18.0721 21.0931 18.4156 20.8636 18.7049 20.5743C18.9941 20.285 19.2236 19.9416 19.3802 19.5636C19.5367 19.1856 19.6173 18.7805 19.6173 18.3714C19.6173 17.9623 19.5367 17.5572 19.3802 17.1792C19.2236 16.8012 18.9941 16.4578 18.7049 16.1685C18.4156 15.8792 18.0721 15.6497 17.6941 15.4932C17.3162 15.3366 16.9111 15.256 16.5019 15.256C16.0928 15.256 15.6877 15.3366 15.3097 15.4932C14.9318 15.6497 14.5883 15.8792 14.299 16.1685C14.0097 16.4578 13.7803 16.8012 13.6237 17.1792C13.4671 17.5572 13.3866 17.9623 13.3866 18.3714Z" stroke="white" stroke-width="1.38462" stroke-linecap="round" stroke-linejoin="round"/>
<path d="M10.6126 18.3716C10.6126 18.3716 10.6126 16.987 11.9972 16.987C13.3818 16.987 13.3832 18.3716 13.3832 18.3716M3 11.8057H21M6.26769 4.65559C6.32152 4.33181 6.48862 4.03768 6.73918 3.82567C6.98974 3.61365 7.30747 3.49754 7.63569 3.49805H16.3671C16.6948 3.4982 17.0119 3.61461 17.2619 3.82656C17.5119 4.03852 17.6786 4.33228 17.7323 4.65559L18.9231 11.8057H5.07692L6.26769 4.65559Z" stroke="white" stroke-width="1.38462" stroke-linecap="round" stroke-linejoin="round"/>
</svg>
