<svg width="18" height="20" viewBox="0 0 18 20" fill="none" xmlns="http://www.w3.org/2000/svg">
<path d="M13.1666 8.33334H11.4999V5.00001C11.4999 3.62168 10.3783 2.50001 8.99992 2.50001C7.62159 2.50001 6.49992 3.62168 6.49992 5.00001V8.33334H4.83325V5.00001C4.83325 2.70251 6.70242 0.833344 8.99992 0.833344C11.2974 0.833344 13.1666 2.70251 13.1666 5.00001V8.33334Z" fill="#AFB8C7"/>
<path d="M14.8332 7.50002H3.1665C1.78817 7.50002 0.666504 8.62168 0.666504 10V16.6667C0.666504 18.045 1.78817 19.1667 3.1665 19.1667H14.8332C16.2115 19.1667 17.3332 18.045 17.3332 16.6667V10C17.3332 8.62168 16.2115 7.50002 14.8332 7.50002ZM9.83317 13.935V15.8333H8.1665V13.935C7.67067 13.6458 7.33317 13.1142 7.33317 12.5C7.33317 11.5808 8.08067 10.8333 8.99984 10.8333C9.919 10.8333 10.6665 11.5808 10.6665 12.5C10.6665 13.1142 10.329 13.6458 9.83317 13.935Z" fill="#AFB8C7"/>
</svg>
