<svg width="32" height="32" viewBox="0 0 32 32" fill="none" xmlns="http://www.w3.org/2000/svg">
<rect width="32" height="32" rx="10" fill="#007AFF"/>
<g clip-path="url(#clip0_172_3826)">
<path d="M22.75 11.5V16C23.9926 16 25 14.9926 25 13.75C25 12.5074 23.9926 11.5 22.75 11.5Z" fill="white"/>
<path d="M14.6471 18.817H10.9374C10.8862 18.817 10.8372 18.8108 10.7866 18.8091L12.8499 23.8834C13.1289 24.5764 13.7988 24.9988 14.5047 24.9988C14.7252 24.9988 14.9491 24.9578 15.1662 24.8706C16.0736 24.5038 16.5162 23.4655 16.1523 22.5565L14.6471 18.817Z" fill="white"/>
<path d="M21.3016 7.05795C21.1036 6.96626 20.8701 6.99607 20.7031 7.13501C20.6704 7.16201 17.4484 9.81757 14.8756 9.81757H10.9375C8.76681 9.81701 7 11.5833 7 13.7545C7 15.9258 8.76681 17.692 10.9375 17.692H14.875C17.4479 17.692 20.6704 20.3476 20.7025 20.3746C20.8054 20.4601 20.9331 20.5045 21.0625 20.5045C21.1441 20.5045 21.2251 20.4871 21.3016 20.4511C21.499 20.3583 21.625 20.1597 21.625 19.942V7.56701C21.625 7.34876 21.4984 7.15076 21.3016 7.05795Z" fill="white"/>
</g>
<defs>
<clipPath id="clip0_172_3826">
<rect width="18" height="18" fill="white" transform="translate(7 7)"/>
</clipPath>
</defs>
</svg>
