<svg viewBox="0 0 32 32" fill="none" xmlns="http://www.w3.org/2000/svg">
<rect width="32" height="32" rx="8" fill="#E06752"/>
<path d="M7.6913 11.824C9.99614 14.4759 13.3419 16.0124 16.8859 16C19.7607 16 22.5117 14.9963 24.6925 13.1376L24.0729 11.9232C22.0903 13.7076 19.5625 14.6865 16.8859 14.6865C13.503 14.6865 10.3555 13.1376 8.31088 10.461L7.6913 11.824ZM6.56367 17.487C11.6194 21.8365 18.9057 22.6419 24.7546 19.5192L24.6925 18.0322C19.0544 21.4028 11.7805 20.5848 6.91063 16.0372L6.56367 17.487ZM11.4583 24.1785L13.0197 24.513C12.2638 22.7411 11.8797 20.87 11.8673 18.9492C11.8053 14.3271 13.8747 9.97771 17.493 7.07807L16.1424 6.50806C12.5364 9.64312 10.4918 14.1784 10.5538 18.9492C10.5662 20.7213 10.8635 22.4808 11.4583 24.1785ZM17.8524 25.0954L19.0667 24.5378C17.2204 21.9728 16.2167 18.9244 16.2167 15.7646C16.2167 12.803 17.0717 9.95291 18.7074 7.52416L17.4187 7.07807C15.7706 9.6803 14.9032 12.6915 14.9032 15.7646C14.9032 19.1227 15.9193 22.3569 17.8524 25.0954ZM23.5401 21.5143L24.4323 20.5229C21.1362 18.627 19.1163 15.1574 19.1039 11.3532C19.1039 10.0273 19.3394 8.71376 19.8103 7.487L18.5463 7.14003C18.0383 8.47831 17.7905 9.89096 17.7905 11.3532C17.8028 15.5167 19.9713 19.3581 23.5401 21.5143ZM11.8177 15.8637C12.6851 15.8637 13.4038 15.1574 13.4038 14.2776C13.4038 13.4102 12.6851 12.6915 11.8177 12.6915C10.9379 12.6915 10.2316 13.4102 10.2316 14.2776C10.2316 15.1574 10.9379 15.8637 11.8177 15.8637ZM19.2651 16.6444C20.1325 16.6444 20.8388 15.9381 20.8388 15.0582C20.8388 14.1908 20.1325 13.4845 19.2651 13.4845C18.3852 13.4845 17.6789 14.1908 17.6789 15.0582C17.6789 15.9381 18.3852 16.6444 19.2651 16.6444ZM16.3159 22.2702C17.1833 22.2702 17.8896 21.5638 17.8896 20.6841C17.8896 19.8167 17.1833 19.1103 16.3159 19.1103C15.436 19.1103 14.7173 19.8167 14.7173 20.6841C14.7173 21.5638 15.436 22.2702 16.3159 22.2702ZM15.9937 26C21.5203 26 26.0061 21.5266 26.0061 16C26.0061 10.4734 21.5203 6 15.9937 6C10.4794 6 5.99365 10.4734 5.99365 16C5.99365 21.5266 10.4794 26 15.9937 26ZM15.9937 24.513C11.2973 24.513 7.49303 20.6964 7.49303 16C7.49303 11.3036 11.2973 7.487 15.9937 7.487C20.69 7.487 24.5066 11.3036 24.5066 16C24.5066 20.6964 20.69 24.513 15.9937 24.513Z" fill="white"/>
</svg>
