<svg width="24" height="24" viewBox="0 0 24 24" fill="none" xmlns="http://www.w3.org/2000/svg">
<path d="M17.3636 5.36358C17.7151 5.01211 18.2855 5.01211 18.637 5.36358C18.9881 5.71508 18.9884 6.28568 18.637 6.63702L13.2737 12.0003L18.637 17.3636L18.6985 17.4319C18.9866 17.7854 18.9664 18.3076 18.637 18.637C18.3076 18.9664 17.7854 18.9866 17.4319 18.6985L17.3636 18.637L12.0003 13.2737L6.63702 18.637L6.56866 18.6985C6.2153 18.9869 5.69316 18.9662 5.36358 18.637C5.03404 18.3075 5.01364 17.7854 5.30206 17.4319L5.36358 17.3636L10.7269 12.0003L5.36358 6.63702C5.01211 6.28555 5.01211 5.71505 5.36358 5.36358C5.71505 5.01211 6.28555 5.01211 6.63702 5.36358L12.0003 10.7269L17.3636 5.36358Z" fill="#698BF4" fill-opacity="0.2"/>
</svg>
