<svg viewBox="0 0 32 32" fill="none" xmlns="http://www.w3.org/2000/svg">
<rect width="32" height="32" rx="8" fill="#BB4B95"/>
<path d="M16.0064 7.00003C15.3973 7.00003 14.9567 7.42768 14.9567 8.03674V17.5875L15.0474 19.7646L11.8077 16.1749L9.96753 14.3866C9.78611 14.2052 9.51397 14.1015 9.24183 14.1015C8.64572 14.1015 8.23104 14.5421 8.23104 15.1253C8.23104 15.3974 8.33471 15.6436 8.55501 15.8899L15.2159 22.5767C15.4492 22.81 15.7213 22.9266 16.0064 22.9266C16.2915 22.9266 16.5636 22.81 16.7839 22.5767L23.4448 15.8899C23.6781 15.6436 23.7817 15.3974 23.7817 15.1253C23.7817 14.5421 23.354 14.1015 22.7709 14.1015C22.4988 14.1015 22.2266 14.2052 22.0323 14.3866L20.1921 16.1749L16.9654 19.7516L17.0431 17.5875V8.03674C17.0431 7.42768 16.6155 7.00003 16.0064 7.00003ZM9.22887 22.9006C8.63276 22.9006 8.21808 23.3413 8.21808 23.9502C8.21808 24.5593 8.63276 25 9.22887 25H22.7579C23.367 25 23.7817 24.5593 23.7817 23.9502C23.7817 23.3413 23.367 22.9006 22.7579 22.9006H9.22887Z" fill="white"/>
</svg>
