<svg viewBox="0 0 32 32" fill="none" xmlns="http://www.w3.org/2000/svg">
<rect width="32" height="32" rx="8" fill="#A14CCC"/>
<path d="M15.9938 25.9938C21.517 25.9938 26 21.5232 26 16C26 10.4768 21.517 6.00621 15.9938 6.00621C10.483 6.00621 6 10.4768 6 16C6 21.5232 10.483 25.9938 15.9938 25.9938ZM15.9938 24.1114C11.5108 24.1114 7.89473 20.483 7.89473 16C7.89473 11.517 11.5108 7.88857 15.9938 7.88857C20.4767 7.88857 24.1052 11.517 24.1052 16C24.1052 20.483 20.4767 24.1114 15.9938 24.1114Z" fill="white" fill-opacity="0.85"/>
<path d="M12.1793 20.6688C12.6747 20.6688 13.0834 20.2601 13.0834 19.7647C13.0834 19.2694 12.6747 18.8607 12.1793 18.8607C11.684 18.8607 11.2753 19.2694 11.2753 19.7647C11.2753 20.2601 11.684 20.6688 12.1793 20.6688ZM10.6066 16.9041C11.1019 16.9041 11.5106 16.4954 11.5106 16C11.5106 15.5047 11.1019 15.096 10.6066 15.096C10.1112 15.096 9.69019 15.5047 9.69019 16C9.69019 16.4954 10.1112 16.9041 10.6066 16.9041ZM12.1793 13.1394C12.6747 13.1394 13.0834 12.7307 13.0834 12.2353C13.0834 11.74 12.6747 11.3313 12.1793 11.3313C11.684 11.3313 11.2753 11.74 11.2753 12.2353C11.2753 12.7307 11.684 13.1394 12.1793 13.1394ZM15.9812 11.5295C16.4766 11.5295 16.8976 11.1208 16.8976 10.6254C16.8976 10.1301 16.4766 9.72142 15.9812 9.72142C15.4858 9.72142 15.0772 10.1301 15.0772 10.6254C15.0772 11.1208 15.4858 11.5295 15.9812 11.5295ZM19.7954 13.1394C20.2907 13.1394 20.6995 12.7307 20.6995 12.2353C20.6995 11.74 20.2907 11.3313 19.7954 11.3313C19.3001 11.3313 18.8914 11.74 18.8914 12.2353C18.8914 12.7307 19.3001 13.1394 19.7954 13.1394ZM21.3434 16.9041C21.8387 16.9041 22.2599 16.4954 22.2599 16C22.2599 15.5047 21.8387 15.096 21.3434 15.096C20.8481 15.096 20.4394 15.5047 20.4394 16C20.4394 16.4954 20.8481 16.9041 21.3434 16.9041ZM14.3837 14.3406C13.7026 15.0217 13.7026 15.9877 14.3837 16.6688C14.5075 16.805 14.7923 17.0032 14.9657 17.127L19.6468 20.3096C19.9069 20.483 20.1546 20.4335 20.3156 20.2849C20.4641 20.1239 20.5261 19.8762 20.3403 19.6161L17.1577 14.935C17.0338 14.7617 16.8357 14.4768 16.6995 14.3406C16.0183 13.6595 15.0524 13.6595 14.3837 14.3406Z" fill="white" fill-opacity="0.85"/>
</svg>
