<svg viewBox="0 0 32 32" fill="none" xmlns="http://www.w3.org/2000/svg">
<rect width="32" height="32" rx="8" fill="#C75179"/>
<path d="M12.0984 14.4015C11.8464 14.9418 11.708 15.5453 11.708 16.1818C11.708 18.5549 13.6318 20.4689 16.0049 20.4689C16.6404 20.4689 17.243 20.3316 17.7827 20.0814L19.779 22.0762C18.6364 22.4756 17.3679 22.715 16.0049 22.715C9.88183 22.715 5.53613 17.7443 5.53613 16.1818C5.53613 15.2755 6.98017 13.2431 9.38204 11.6872L12.0984 14.4015ZM26.4638 16.1818C26.4638 17.0571 25.1308 19.0018 22.8653 20.5427L20.0139 17.6936C20.1953 17.2253 20.292 16.7152 20.292 16.1818C20.292 13.8088 18.3779 11.8947 16.0049 11.8947C15.4707 11.8947 14.9593 11.9917 14.4897 12.1735L12.5158 10.2012C13.5874 9.85388 14.7594 9.64862 16.0049 9.64862C22.2158 9.64862 26.4638 14.6096 26.4638 16.1818ZM16.5264 18.8261C16.358 18.86 16.1835 18.8771 16.0049 18.8771C14.5107 18.8771 13.3096 17.676 13.3096 16.1818C13.3096 16.0039 13.3266 15.8301 13.3603 15.6624L16.5264 18.8261ZM18.7002 16.1818L18.6907 16.3713L15.8132 13.4961C15.876 13.4888 15.9401 13.4865 16.0049 13.4865C17.499 13.4865 18.7002 14.6877 18.7002 16.1818Z" fill="white"/>
<path d="M21.874 22.8127C22.1377 23.0764 22.5576 23.0959 22.831 22.8127C23.1045 22.5197 23.0849 22.1291 22.831 21.8654L10.126 9.17987C9.8623 8.9162 9.43261 8.9162 9.16894 9.17987C8.91504 9.43377 8.91504 9.87323 9.16894 10.1271L21.874 22.8127Z" fill="white"/>
</svg>
