<svg viewBox="0 0 32 32" fill="none" xmlns="http://www.w3.org/2000/svg">
<rect width="32" height="32" rx="8" fill="#E57E37"/>
<path d="M11.4139 26H20.5859C22.1513 26 22.9404 25.1979 22.9404 23.5032V16.6856C22.9404 15.0039 22.1513 14.2018 20.5859 14.2018H11.4139C9.84858 14.2018 9.05945 15.0039 9.05945 16.6856V23.5032C9.05945 25.1979 9.84858 26 11.4139 26ZM10.8188 15.0944H12.6429V11.4722C12.6429 8.96248 14.2599 7.7335 15.9935 7.7335C17.7399 7.7335 19.3699 8.96248 19.3699 11.4722V15.0944H21.194V11.7309C21.194 7.77231 18.5937 6 15.9935 6C13.4061 6 10.8188 7.77231 10.8188 11.7309V15.0944Z" fill="white"/>
</svg>
