<svg width="22" height="22" viewBox="0 0 22 22" fill="none" xmlns="http://www.w3.org/2000/svg">
<path d="M22 12.75V9.25L19.616 8.409C19.44 7.826 19.209 7.267 18.925 6.741L20.016 4.46L17.541 1.985L15.26 3.076C14.733 2.792 14.174 2.561 13.592 2.385L12.751 0.0010004H9.25101L8.41001 2.385C7.82701 2.561 7.26801 2.792 6.74201 3.076L4.46101 1.985L1.98601 4.46L3.07701 6.741C2.79301 7.268 2.56201 7.827 2.38601 8.409L0.00201416 9.25V12.75L2.38601 13.591C2.56201 14.174 2.79301 14.733 3.07701 15.259L1.98601 17.54L4.46101 20.015L6.74201 18.924C7.26901 19.208 7.82801 19.439 8.41001 19.615L9.25101 21.999H12.751L13.592 19.615C14.175 19.439 14.734 19.208 15.26 18.924L17.541 20.015L20.016 17.54L18.925 15.259C19.209 14.732 19.44 14.173 19.616 13.591L22 12.75ZM11 15C8.79401 15 7.00001 13.206 7.00001 11C7.00001 8.794 8.79401 7 11 7C13.206 7 15 8.794 15 11C15 13.206 13.206 15 11 15Z" fill="#61646A"/>
</svg>
