<svg width="18" height="23" viewBox="0 0 18 23" fill="none" xmlns="http://www.w3.org/2000/svg">
<path d="M1 10.5H17M9 20.5V1.5M1 10.752C1 18.439 7.918 21.139 8.887 21.48C8.96233 21.5067 9.03767 21.5067 9.113 21.48C10.084 21.15 17 18.518 17 10.753V3.804C17.0002 3.71463 16.9705 3.62777 16.9156 3.55726C16.8607 3.48675 16.7837 3.43667 16.697 3.415L9.097 1.512C9.03331 1.49608 8.96669 1.49608 8.903 1.512L1.303 3.415C1.2163 3.43667 1.13935 3.48675 1.08443 3.55726C1.02952 3.62777 0.999791 3.71463 1 3.804V10.752Z" stroke="white" stroke-width="1.5" stroke-miterlimit="10" stroke-linecap="round" stroke-linejoin="round"/>
</svg>
