<svg viewBox="0 0 30 24" fill="none" xmlns="http://www.w3.org/2000/svg">
<path d="M0 20C0 22.209 1.791 24 4 24H26C28.209 24 30 22.209 30 20V11H0V20Z" fill="white"/>
<path d="M26 0H4C1.791 0 0 1.791 0 4V12H30V4C30 1.791 28.209 0 26 0Z" fill="#DB3C3F"/>
<path opacity="0.15" d="M4 24H26C28.209 24 30 22.209 30 20V4C30 1.791 28.209 0 26 0H4C1.791 0 0 1.791 0 4V20C0 22.209 1.791 24 4 24ZM1 4C1 2.346 2.346 1 4 1H26C27.654 1 29 2.346 29 4V20C29 21.654 27.654 23 26 23H4C2.346 23 1 21.654 1 20V4Z" fill="black"/>
<path opacity="0.2" d="M26 1H4C2.343 1 1 2.343 1 4V5C1 3.343 2.343 2 4 2H26C27.657 2 29 3.343 29 5V4C29 2.343 27.657 1 26 1Z" fill="white"/>
<path d="M5.81102 6.5C5.81102 4.602 7.13202 3.013 8.90502 2.603C8.61402 2.536 8.31102 2.5 7.99902 2.5C5.79002 2.5 3.99902 4.291 3.99902 6.5C3.99902 8.709 5.79002 10.5 7.99902 10.5C8.31002 10.5 8.61402 10.464 8.90502 10.397C7.13202 9.987 5.81102 8.398 5.81102 6.5Z" fill="white"/>
<path d="M9.81 4.329L9.576 5.048L10.189 4.603L10.801 5.048L10.567 4.329L11.179 3.884H10.423L10.189 3.164L9.955 3.884H9.198L9.81 4.329Z" fill="white"/>
<path d="M13.361 5.46902H12.605L12.371 4.74902L12.137 5.46902H11.38L11.992 5.91402L11.759 6.63402L12.371 6.18902L12.983 6.63402L12.749 5.91402L13.361 5.46902Z" fill="white"/>
<path d="M9.07398 8.034L8.83998 7.315L8.60598 8.034H7.84998L8.46198 8.479L8.22797 9.199L8.83998 8.754L9.45197 9.199L9.21798 8.479L9.83098 8.034H9.07398Z" fill="white"/>
<path d="M11.771 8.034L11.537 7.315L11.303 8.034H10.547L11.159 8.479L10.925 9.199L11.537 8.754L12.149 9.199L11.916 8.479L12.528 8.034H11.771Z" fill="white"/>
<path d="M8.23999 5.469L8.00699 4.75L7.77299 5.469H7.01599L7.62799 5.914L7.39399 6.634L8.00699 6.189L8.61899 6.634L8.38499 5.914L8.99699 5.469H8.23999Z" fill="white"/>
</svg>
