<svg viewBox="0 0 30 24" fill="none" xmlns="http://www.w3.org/2000/svg">
<path d="M4 24H26C28.209 24 30 22.209 30 20V12H0V20C0 22.209 1.791 24 4 24Z" fill="#030A85"/>
<path d="M30 4C30 1.791 28.209 0 26 0H4C1.791 0 0 1.791 0 4V13H30V4Z" fill="#D04839"/>
<path d="M1.271 22.911L14 12L1.271 1.08899C0.493 1.81899 0 2.84899 0 3.99999V20C0 21.151 0.493 22.181 1.271 22.911Z" fill="black"/>
<path d="M4.61 0H4C2.942 0 1.986 0.419 1.271 1.089L14 12L1.271 22.911C1.986 23.582 2.942 24 4 24H4.61L15.11 15H30V9H15.11L4.61 0Z" fill="white"/>
<path d="M1.27103 1.08899C0.503028 1.80899 0.0170283 2.82199 0.00402832 3.95499L9.39003 12L0.00502837 20.045C0.0180284 21.178 0.504028 22.191 1.27203 22.911L14.001 12L1.27103 1.08899Z" fill="#F5BD45"/>
<path d="M3.17499 0.0870056C1.75599 0.385006 0.630989 1.44101 0.200989 2.80701L10.926 12L0.200989 21.193C0.629989 22.559 1.75599 23.615 3.17499 23.913L14.74 14H30V10H14.74L3.17499 0.0870056Z" fill="#33764C"/>
<path opacity="0.15" d="M4 24H26C28.209 24 30 22.209 30 20V4C30 1.791 28.209 0 26 0H4C1.791 0 0 1.791 0 4V20C0 22.209 1.791 24 4 24ZM1 4C1 2.346 2.346 1 4 1H26C27.654 1 29 2.346 29 4V20C29 21.654 27.654 23 26 23H4C2.346 23 1 21.654 1 20V4Z" fill="black"/>
<path opacity="0.2" d="M26 1H4C2.343 1 1 2.343 1 4V5C1 3.343 2.343 2 4 2H26C27.657 2 29 3.343 29 5V4C29 2.343 27.657 1 26 1Z" fill="white"/>
</svg>
