<svg width="32" height="32" viewBox="0 0 32 32" fill="none" xmlns="http://www.w3.org/2000/svg">
<rect width="32" height="32" rx="10" fill="#FF3B30"/>
<g clip-path="url(#clip0_172_3836)">
<path d="M20.7875 10.1515L10.1512 20.7878L11.2119 21.8485L21.8482 11.2122L20.7875 10.1515Z" fill="white"/>
<path d="M16 24.25C11.4513 24.25 7.75 20.5487 7.75 16C7.75 11.4513 11.4513 7.75 16 7.75C20.5487 7.75 24.25 11.4513 24.25 16C24.25 20.5487 20.5487 24.25 16 24.25ZM16 9.25C12.2785 9.25 9.25 12.2778 9.25 16C9.25 19.7222 12.2785 22.75 16 22.75C19.7215 22.75 22.75 19.7222 22.75 16C22.75 12.2778 19.7215 9.25 16 9.25Z" fill="white"/>
</g>
<defs>
<clipPath id="clip0_172_3836">
<rect width="18" height="18" fill="white" transform="translate(7 7)"/>
</clipPath>
</defs>
</svg>
